<svg width="124" height="126" viewBox="0 0 124 126" fill="none" xmlns="http://www.w3.org/2000/svg">
<g filter="url(#filter0_d_77_35)">
<rect x="2" width="120" height="120" rx="5" fill="#F5F5F5"/>
</g>
<path d="M49.9656 24.672C50.6589 24.672 51.2616 24.7733 51.7736 24.976C52.2856 25.168 52.7869 25.4667 53.2776 25.872L52.1096 27.232C51.4696 26.7093 50.7976 26.448 50.0936 26.448C49.3043 26.448 48.6749 26.7733 48.2056 27.424C47.7469 28.064 47.5176 29.072 47.5176 30.448C47.5176 31.792 47.7469 32.7893 48.2056 33.44C48.6749 34.08 49.3096 34.4 50.1096 34.4C50.5256 34.4 50.9043 34.3253 51.2456 34.176C51.5869 34.016 51.9443 33.792 52.3176 33.504L53.4056 34.864C53.0109 35.2693 52.5203 35.6053 51.9336 35.872C51.3576 36.128 50.7176 36.256 50.0136 36.256C49.0216 36.256 48.1523 36.032 47.4056 35.584C46.6589 35.136 46.0776 34.48 45.6616 33.616C45.2456 32.7413 45.0376 31.6853 45.0376 30.448C45.0376 29.2427 45.2509 28.208 45.6776 27.344C46.1043 26.4693 46.6909 25.808 47.4376 25.36C48.1843 24.9013 49.0269 24.672 49.9656 24.672Z" fill="url(#paint0_linear_77_35)"/>
<path d="M57.958 24.672C58.758 24.672 59.4513 24.7893 60.038 25.024C60.6353 25.248 61.1846 25.5947 61.686 26.064L60.566 27.36C60.1713 27.04 59.7766 26.8053 59.382 26.656C58.9873 26.5067 58.566 26.432 58.118 26.432C57.6273 26.432 57.2326 26.5387 56.934 26.752C56.646 26.9547 56.502 27.248 56.502 27.632C56.502 27.8987 56.5606 28.1173 56.678 28.288C56.806 28.4587 57.0246 28.6187 57.334 28.768C57.6433 28.9173 58.1073 29.088 58.726 29.28C59.8246 29.632 60.646 30.0693 61.19 30.592C61.734 31.104 62.006 31.84 62.006 32.8C62.006 33.4827 61.8353 34.0853 61.494 34.608C61.1526 35.12 60.6566 35.5253 60.006 35.824C59.3553 36.112 58.5926 36.256 57.718 36.256C56.8433 36.256 56.0646 36.1173 55.382 35.84C54.6993 35.5627 54.1126 35.184 53.622 34.704L54.822 33.376C55.2486 33.7387 55.6913 34.016 56.15 34.208C56.6086 34.3893 57.11 34.48 57.654 34.48C58.23 34.48 58.6886 34.3467 59.03 34.08C59.382 33.8133 59.558 33.44 59.558 32.96C59.558 32.6613 59.494 32.416 59.366 32.224C59.2486 32.0213 59.0406 31.84 58.742 31.68C58.4433 31.52 58.0113 31.3547 57.446 31.184C56.2406 30.8107 55.3766 30.3627 54.854 29.84C54.342 29.3173 54.086 28.6347 54.086 27.792C54.086 27.1733 54.2513 26.6293 54.582 26.16C54.9126 25.68 55.3713 25.312 55.958 25.056C56.5446 24.8 57.2113 24.672 57.958 24.672Z" fill="url(#paint1_linear_77_35)"/>
<path d="M66.833 24.672C67.633 24.672 68.3263 24.7893 68.913 25.024C69.5103 25.248 70.0596 25.5947 70.561 26.064L69.441 27.36C69.0463 27.04 68.6516 26.8053 68.257 26.656C67.8623 26.5067 67.441 26.432 66.993 26.432C66.5023 26.432 66.1076 26.5387 65.809 26.752C65.521 26.9547 65.377 27.248 65.377 27.632C65.377 27.8987 65.4356 28.1173 65.553 28.288C65.681 28.4587 65.8996 28.6187 66.209 28.768C66.5183 28.9173 66.9823 29.088 67.601 29.28C68.6996 29.632 69.521 30.0693 70.065 30.592C70.609 31.104 70.881 31.84 70.881 32.8C70.881 33.4827 70.7103 34.0853 70.369 34.608C70.0276 35.12 69.5316 35.5253 68.881 35.824C68.2303 36.112 67.4676 36.256 66.593 36.256C65.7183 36.256 64.9396 36.1173 64.257 35.84C63.5743 35.5627 62.9876 35.184 62.497 34.704L63.697 33.376C64.1236 33.7387 64.5663 34.016 65.025 34.208C65.4836 34.3893 65.985 34.48 66.529 34.48C67.105 34.48 67.5636 34.3467 67.905 34.08C68.257 33.8133 68.433 33.44 68.433 32.96C68.433 32.6613 68.369 32.416 68.241 32.224C68.1236 32.0213 67.9156 31.84 67.617 31.68C67.3183 31.52 66.8863 31.3547 66.321 31.184C65.1156 30.8107 64.2516 30.3627 63.729 29.84C63.217 29.3173 62.961 28.6347 62.961 27.792C62.961 27.1733 63.1263 26.6293 63.457 26.16C63.7876 25.68 64.2463 25.312 64.833 25.056C65.4196 24.8 66.0863 24.672 66.833 24.672Z" fill="url(#paint2_linear_77_35)"/>
<path d="M75.0958 25.008C75.8318 25.008 76.4612 25.1307 76.9838 25.376C77.5172 25.6107 77.9172 25.936 78.1838 26.352C78.4612 26.768 78.5998 27.232 78.5998 27.744C78.5998 28.3947 78.4132 28.9387 78.0398 29.376C77.6665 29.8027 77.1492 30.1067 76.4878 30.288C77.2132 30.3627 77.8052 30.624 78.2638 31.072C78.7225 31.52 78.9518 32.144 78.9518 32.944C78.9518 33.5627 78.7918 34.1227 78.4718 34.624C78.1625 35.1253 77.7038 35.5253 77.0958 35.824C76.4878 36.112 75.7678 36.256 74.9358 36.256C73.4105 36.256 72.2158 35.7227 71.3518 34.656L72.5838 33.472C72.9465 33.8347 73.3038 34.096 73.6558 34.256C74.0078 34.416 74.3918 34.496 74.8078 34.496C75.3625 34.496 75.7998 34.3467 76.1198 34.048C76.4505 33.7493 76.6158 33.3333 76.6158 32.8C76.6158 32.224 76.4612 31.808 76.1518 31.552C75.8425 31.296 75.3785 31.168 74.7598 31.168H73.8798L74.1518 29.568H74.7438C75.2452 29.568 75.6452 29.4347 75.9438 29.168C76.2425 28.9013 76.3918 28.528 76.3918 28.048C76.3918 27.632 76.2532 27.3067 75.9758 27.072C75.7092 26.8373 75.3412 26.72 74.8718 26.72C74.4665 26.72 74.0932 26.7947 73.7518 26.944C73.4105 27.0933 73.0745 27.328 72.7438 27.648L71.6078 26.416C72.5998 25.4773 73.7625 25.008 75.0958 25.008Z" fill="url(#paint3_linear_77_35)"/>
<path d="M83.988 45.049L79.8467 89.4352L61.9043 94.2156L43.9617 89.4352L39.8213 45.049H83.988ZM75.6431 54.0742H61.8882H47.8896L48.5591 59.4342H61.8882H62.6369L61.8882 59.7426L49.0463 65.0351L49.4721 70.2744L61.8882 70.3143L68.5428 70.3351L68.1168 77.3211L61.8881 79.0564V79.0509L61.837 79.0649L55.8216 77.5623L55.4566 73.2258H55.4367H49.8571H49.8375L50.5678 81.5973L61.8883 84.91V84.904L61.9087 84.91L73.1685 81.6577L74.6291 65.0351H61.8883H61.8569L61.8883 65.0217L75.0958 59.4342L75.6431 54.0742Z" fill="url(#paint4_linear_77_35)"/>
<defs>
<filter id="filter0_d_77_35" x="0" y="0" width="124" height="126" filterUnits="userSpaceOnUse" color-interpolation-filters="sRGB">
<feFlood flood-opacity="0" result="BackgroundImageFix"/>
<feColorMatrix in="SourceAlpha" type="matrix" values="0 0 0 0 0 0 0 0 0 0 0 0 0 0 0 0 0 0 127 0" result="hardAlpha"/>
<feOffset dy="4"/>
<feGaussianBlur stdDeviation="1"/>
<feComposite in2="hardAlpha" operator="out"/>
<feColorMatrix type="matrix" values="0 0 0 0 0 0 0 0 0 0 0 0 0 0 0 0 0 0 0.15 0"/>
<feBlend mode="normal" in2="BackgroundImageFix" result="effect1_dropShadow_77_35"/>
<feBlend mode="normal" in="SourceGraphic" in2="effect1_dropShadow_77_35" result="shape"/>
</filter>
<linearGradient id="paint0_linear_77_35" x1="49.3755" y1="24.672" x2="76.4009" y2="36.6723" gradientUnits="userSpaceOnUse">
<stop stop-color="#702EC4"/>
<stop offset="1" stop-color="#DB37DE"/>
</linearGradient>
<linearGradient id="paint1_linear_77_35" x1="49.3755" y1="24.672" x2="76.4009" y2="36.6723" gradientUnits="userSpaceOnUse">
<stop stop-color="#702EC4"/>
<stop offset="1" stop-color="#DB37DE"/>
</linearGradient>
<linearGradient id="paint2_linear_77_35" x1="49.3755" y1="24.672" x2="76.4009" y2="36.6723" gradientUnits="userSpaceOnUse">
<stop stop-color="#702EC4"/>
<stop offset="1" stop-color="#DB37DE"/>
</linearGradient>
<linearGradient id="paint3_linear_77_35" x1="49.3755" y1="24.672" x2="76.4009" y2="36.6723" gradientUnits="userSpaceOnUse">
<stop stop-color="#702EC4"/>
<stop offset="1" stop-color="#DB37DE"/>
</linearGradient>
<linearGradient id="paint4_linear_77_35" x1="45.4705" y1="45.049" x2="86.8374" y2="50.685" gradientUnits="userSpaceOnUse">
<stop stop-color="#702EC4"/>
<stop offset="1" stop-color="#DB37DE"/>
</linearGradient>
</defs>
</svg>
