<svg width="124" height="126" viewBox="0 0 124 126" fill="none" xmlns="http://www.w3.org/2000/svg">
<g filter="url(#filter0_d_77_52)">
<rect x="2" width="120" height="120" rx="5" fill="#F5F5F5"/>
</g>
<path d="M42.2383 36V24.928H48.6703L48.4143 26.64H44.5903V29.776H47.9183V31.488H44.5903V36H42.2383Z" fill="url(#paint0_linear_77_52)"/>
<path d="M51.7904 27.52V36H49.5184V27.52H51.7904ZM50.6384 23.152C51.0437 23.152 51.3744 23.28 51.6304 23.536C51.8971 23.7813 52.0304 24.096 52.0304 24.48C52.0304 24.864 51.8971 25.184 51.6304 25.44C51.3744 25.6853 51.0437 25.808 50.6384 25.808C50.2331 25.808 49.9024 25.6853 49.6464 25.44C49.3904 25.184 49.2624 24.864 49.2624 24.48C49.2624 24.096 49.3904 23.7813 49.6464 23.536C49.9024 23.28 50.2331 23.152 50.6384 23.152Z" fill="url(#paint1_linear_77_52)"/>
<path d="M61.618 27.984C61.0634 28.1973 60.2474 28.304 59.17 28.304C59.7034 28.5386 60.098 28.832 60.354 29.184C60.61 29.5253 60.738 29.9573 60.738 30.48C60.738 31.024 60.594 31.5146 60.306 31.952C60.0287 32.3786 59.6234 32.7146 59.09 32.96C58.5674 33.2053 57.954 33.328 57.25 33.328C56.8767 33.328 56.546 33.2906 56.258 33.216C56.0447 33.3546 55.938 33.5413 55.938 33.776C55.938 33.9466 56.002 34.0853 56.13 34.192C56.2687 34.288 56.53 34.336 56.914 34.336H58.21C58.8394 34.336 59.3887 34.4426 59.858 34.656C60.338 34.8586 60.706 35.1466 60.962 35.52C61.2287 35.8826 61.362 36.2986 61.362 36.768C61.362 37.632 60.9887 38.304 60.242 38.784C59.506 39.2746 58.4394 39.52 57.042 39.52C56.0394 39.52 55.2447 39.4133 54.658 39.2C54.082 38.9973 53.6767 38.6986 53.442 38.304C53.2074 37.9093 53.09 37.4133 53.09 36.816H55.122C55.122 37.0933 55.1754 37.312 55.282 37.472C55.3887 37.6426 55.5807 37.7653 55.858 37.84C56.146 37.9253 56.5567 37.968 57.09 37.968C57.826 37.968 58.338 37.8773 58.626 37.696C58.9247 37.5146 59.074 37.2586 59.074 36.928C59.074 36.6293 58.962 36.4 58.738 36.24C58.514 36.08 58.1834 36 57.746 36H56.498C55.6554 36 55.026 35.8453 54.61 35.536C54.194 35.216 53.986 34.816 53.986 34.336C53.986 34.0373 54.0714 33.7493 54.242 33.472C54.4234 33.184 54.6687 32.944 54.978 32.752C54.4554 32.464 54.0714 32.128 53.826 31.744C53.5914 31.3493 53.474 30.88 53.474 30.336C53.474 29.7173 53.6234 29.1786 53.922 28.72C54.2314 28.2506 54.658 27.8933 55.202 27.648C55.7567 27.392 56.386 27.264 57.09 27.264C57.9647 27.2853 58.6847 27.2106 59.25 27.04C59.8154 26.8693 60.418 26.6026 61.058 26.24L61.618 27.984ZM57.138 28.784C56.7114 28.784 56.37 28.9226 56.114 29.2C55.8687 29.4666 55.746 29.8346 55.746 30.304C55.746 30.784 55.8687 31.1626 56.114 31.44C56.37 31.7173 56.7167 31.856 57.154 31.856C57.6127 31.856 57.9594 31.7226 58.194 31.456C58.4287 31.1893 58.546 30.7946 58.546 30.272C58.546 29.28 58.0767 28.784 57.138 28.784Z" fill="url(#paint2_linear_77_52)"/>
<path d="M71.9052 27.264C72.5772 27.264 73.1158 27.4933 73.5212 27.952C73.9372 28.4106 74.1452 29.0346 74.1452 29.824V36H71.8732V30.208C71.8732 29.376 71.5958 28.96 71.0412 28.96C70.7425 28.96 70.4812 29.056 70.2572 29.248C70.0332 29.44 69.8038 29.7386 69.5692 30.144V36H67.2972V30.208C67.2972 29.376 67.0198 28.96 66.4652 28.96C66.1665 28.96 65.9052 29.0613 65.6812 29.264C65.4572 29.456 65.2332 29.7493 65.0092 30.144V36H62.7372V27.52H64.7052L64.8812 28.576C65.2012 28.1493 65.5585 27.824 65.9532 27.6C66.3585 27.376 66.8225 27.264 67.3452 27.264C67.8252 27.264 68.2412 27.3866 68.5932 27.632C68.9452 27.8666 69.2012 28.2026 69.3612 28.64C69.7132 28.1813 70.0918 27.84 70.4972 27.616C70.9132 27.3813 71.3825 27.264 71.9052 27.264Z" fill="url(#paint3_linear_77_52)"/>
<path d="M82.7797 33.648C82.7797 33.9786 82.8277 34.224 82.9237 34.384C83.0197 34.5333 83.1797 34.6453 83.4037 34.72L82.9237 36.224C82.4223 36.1813 82.0117 36.064 81.6917 35.872C81.3823 35.68 81.1423 35.3813 80.9717 34.976C80.417 35.8293 79.569 36.256 78.4277 36.256C77.585 36.256 76.913 36.016 76.4117 35.536C75.921 35.0453 75.6757 34.4106 75.6757 33.632C75.6757 32.704 76.0117 31.9946 76.6837 31.504C77.3557 31.0133 78.321 30.768 79.5797 30.768H80.5557V30.352C80.5557 29.8293 80.4383 29.4666 80.2037 29.264C79.969 29.0613 79.5797 28.96 79.0357 28.96C78.4383 28.96 77.6917 29.1093 76.7957 29.408L76.2837 27.888C77.3397 27.472 78.385 27.264 79.4197 27.264C80.5717 27.264 81.4197 27.5146 81.9637 28.016C82.5077 28.5066 82.7797 29.2426 82.7797 30.224V33.648ZM79.0517 34.624C79.6917 34.624 80.193 34.3093 80.5557 33.68V32.064H79.8037C78.577 32.064 77.9637 32.5226 77.9637 33.44C77.9637 33.8133 78.0543 34.1066 78.2357 34.32C78.4277 34.5226 78.6997 34.624 79.0517 34.624Z" fill="url(#paint4_linear_77_52)"/>
<path d="M62 51.25H55.75C52.2982 51.25 49.5 54.0482 49.5 57.5C49.5 60.9518 52.2982 63.75 55.75 63.75M62 51.25V63.75M62 51.25H68.25C71.7019 51.25 74.5 54.0482 74.5 57.5C74.5 60.9518 71.7019 63.75 68.25 63.75M55.75 63.75H62M55.75 63.75C52.2982 63.75 49.5 66.5481 49.5 70C49.5 73.4519 52.2982 76.25 55.75 76.25M62 63.75H68.25M62 63.75V76.25M68.25 63.75C71.7019 63.75 74.5 66.5481 74.5 70C74.5 73.4519 71.7019 76.25 68.25 76.25C64.7981 76.25 62 73.4519 62 70C62 66.5481 64.7981 63.75 68.25 63.75ZM62 76.25H55.75M62 76.25V82.5C62 85.9519 59.2019 88.75 55.75 88.75C52.2982 88.75 49.5 85.9519 49.5 82.5C49.5 79.0481 52.2982 76.25 55.75 76.25" stroke="url(#paint5_linear_77_52)" stroke-width="3" stroke-linecap="round" stroke-linejoin="round"/>
<defs>
<filter id="filter0_d_77_52" x="0" y="0" width="124" height="126" filterUnits="userSpaceOnUse" color-interpolation-filters="sRGB">
<feFlood flood-opacity="0" result="BackgroundImageFix"/>
<feColorMatrix in="SourceAlpha" type="matrix" values="0 0 0 0 0 0 0 0 0 0 0 0 0 0 0 0 0 0 127 0" result="hardAlpha"/>
<feOffset dy="4"/>
<feGaussianBlur stdDeviation="1"/>
<feComposite in2="hardAlpha" operator="out"/>
<feColorMatrix type="matrix" values="0 0 0 0 0 0 0 0 0 0 0 0 0 0 0 0 0 0 0.15 0"/>
<feBlend mode="normal" in2="BackgroundImageFix" result="effect1_dropShadow_77_52"/>
<feBlend mode="normal" in="SourceGraphic" in2="effect1_dropShadow_77_52" result="shape"/>
</filter>
<linearGradient id="paint0_linear_77_52" x1="47.5036" y1="23.152" x2="81.7869" y2="36.2292" gradientUnits="userSpaceOnUse">
<stop stop-color="#702EC4"/>
<stop offset="1" stop-color="#DB37DE"/>
</linearGradient>
<linearGradient id="paint1_linear_77_52" x1="47.5036" y1="23.152" x2="81.7869" y2="36.2292" gradientUnits="userSpaceOnUse">
<stop stop-color="#702EC4"/>
<stop offset="1" stop-color="#DB37DE"/>
</linearGradient>
<linearGradient id="paint2_linear_77_52" x1="47.5036" y1="23.152" x2="81.7869" y2="36.2292" gradientUnits="userSpaceOnUse">
<stop stop-color="#702EC4"/>
<stop offset="1" stop-color="#DB37DE"/>
</linearGradient>
<linearGradient id="paint3_linear_77_52" x1="47.5036" y1="23.152" x2="81.7869" y2="36.2292" gradientUnits="userSpaceOnUse">
<stop stop-color="#702EC4"/>
<stop offset="1" stop-color="#DB37DE"/>
</linearGradient>
<linearGradient id="paint4_linear_77_52" x1="47.5036" y1="23.152" x2="81.7869" y2="36.2292" gradientUnits="userSpaceOnUse">
<stop stop-color="#702EC4"/>
<stop offset="1" stop-color="#DB37DE"/>
</linearGradient>
<linearGradient id="paint5_linear_77_52" x1="52.6977" y1="51.25" x2="76.3062" y2="53.6371" gradientUnits="userSpaceOnUse">
<stop stop-color="#702EC4"/>
<stop offset="1" stop-color="#DB37DE"/>
</linearGradient>
</defs>
</svg>
