<svg width="124" height="126" viewBox="0 0 124 126" fill="none" xmlns="http://www.w3.org/2000/svg">
<g filter="url(#filter0_d_77_27)">
<rect x="2" width="120" height="120" rx="5" fill="#F5F5F5"/>
</g>
<path d="M45.2308 36V31.152H41.5668V36H39.2148V24.928H41.5668V29.296H45.2308V24.928H47.5828V36H45.2308Z" fill="url(#paint0_linear_77_27)"/>
<path d="M57.262 24.928L57.006 26.768H54.206V36H51.854V26.768H48.91V24.928H57.262Z" fill="url(#paint1_linear_77_27)"/>
<path d="M68.8883 36H66.5843L66.3443 31.504C66.2697 30.16 66.2323 29.0186 66.2323 28.08C66.2323 27.5786 66.2377 27.216 66.2483 26.992L64.3763 34.816H62.1523L60.1523 26.976C60.195 27.6266 60.2163 28.3573 60.2163 29.168C60.2163 30.032 60.195 30.8266 60.1523 31.552L59.9123 36H57.6243L58.4883 24.928H61.4803L63.3043 32.56L65.0163 24.928H68.0403L68.8883 36Z" fill="url(#paint2_linear_77_27)"/>
<path d="M73.0512 24.928V34.112H77.4352L77.1792 36H70.6992V24.928H73.0512Z" fill="url(#paint3_linear_77_27)"/>
<path d="M84.6516 26.864H80.6676V29.344C81.1903 29.0986 81.7343 28.976 82.2996 28.976C82.8969 28.976 83.4249 29.1146 83.8836 29.392C84.3529 29.6693 84.7209 30.0746 84.9876 30.608C85.2543 31.1306 85.3876 31.7493 85.3876 32.464C85.3876 33.2106 85.2169 33.872 84.8756 34.448C84.5343 35.0133 84.0489 35.456 83.4196 35.776C82.8009 36.096 82.0809 36.256 81.2596 36.256C79.8729 36.256 78.7103 35.7333 77.7716 34.688L79.0516 33.488C79.6489 34.1706 80.3636 34.512 81.1956 34.512C81.7823 34.512 82.2356 34.336 82.5556 33.984C82.8863 33.632 83.0516 33.1253 83.0516 32.464C83.0516 31.1946 82.5076 30.56 81.4196 30.56C81.1849 30.56 80.9609 30.592 80.7476 30.656C80.5449 30.7093 80.3209 30.8053 80.0756 30.944H78.4916V25.216H84.9236L84.6516 26.864Z" fill="url(#paint4_linear_77_27)"/>
<path fill-rule="evenodd" clip-rule="evenodd" d="M75.7527 60.5833H75.7352H54.5941L55.0997 65.5H75.2496C74.9543 69.807 74.0608 78.9319 73.7329 83.084L62.4153 86.2758V86.2854L62.3903 86.2974L51.0652 82.305L50.2893 72.875H55.8405L56.2335 77.9465L62.4003 80.25H62.4153L68.5722 78.0377L69.2054 70.4166H50.0416C49.949 69.4309 48.7576 56.6303 48.5499 55.6666H76.2482C76.0931 57.2891 75.9354 58.9559 75.7527 60.5833ZM40.3333 45.8333L44.3527 90.447L62.3903 95L80.4754 90.3558L84.4999 45.8333H40.3333Z" fill="url(#paint5_linear_77_27)"/>
<defs>
<filter id="filter0_d_77_27" x="0" y="0" width="124" height="126" filterUnits="userSpaceOnUse" color-interpolation-filters="sRGB">
<feFlood flood-opacity="0" result="BackgroundImageFix"/>
<feColorMatrix in="SourceAlpha" type="matrix" values="0 0 0 0 0 0 0 0 0 0 0 0 0 0 0 0 0 0 127 0" result="hardAlpha"/>
<feOffset dy="4"/>
<feGaussianBlur stdDeviation="1"/>
<feComposite in2="hardAlpha" operator="out"/>
<feColorMatrix type="matrix" values="0 0 0 0 0 0 0 0 0 0 0 0 0 0 0 0 0 0 0.15 0"/>
<feBlend mode="normal" in2="BackgroundImageFix" result="effect1_dropShadow_77_27"/>
<feBlend mode="normal" in="SourceGraphic" in2="effect1_dropShadow_77_27" result="shape"/>
</filter>
<linearGradient id="paint0_linear_77_27" x1="45.1207" y1="24.928" x2="76.9898" y2="44.6294" gradientUnits="userSpaceOnUse">
<stop stop-color="#702EC4"/>
<stop offset="1" stop-color="#DB37DE"/>
</linearGradient>
<linearGradient id="paint1_linear_77_27" x1="45.1207" y1="24.928" x2="76.9898" y2="44.6294" gradientUnits="userSpaceOnUse">
<stop stop-color="#702EC4"/>
<stop offset="1" stop-color="#DB37DE"/>
</linearGradient>
<linearGradient id="paint2_linear_77_27" x1="45.1207" y1="24.928" x2="76.9898" y2="44.6294" gradientUnits="userSpaceOnUse">
<stop stop-color="#702EC4"/>
<stop offset="1" stop-color="#DB37DE"/>
</linearGradient>
<linearGradient id="paint3_linear_77_27" x1="45.1207" y1="24.928" x2="76.9898" y2="44.6294" gradientUnits="userSpaceOnUse">
<stop stop-color="#702EC4"/>
<stop offset="1" stop-color="#DB37DE"/>
</linearGradient>
<linearGradient id="paint4_linear_77_27" x1="45.1207" y1="24.928" x2="76.9898" y2="44.6294" gradientUnits="userSpaceOnUse">
<stop stop-color="#702EC4"/>
<stop offset="1" stop-color="#DB37DE"/>
</linearGradient>
<linearGradient id="paint5_linear_77_27" x1="45.9825" y1="45.8333" x2="87.3493" y2="51.4693" gradientUnits="userSpaceOnUse">
<stop stop-color="#702EC4"/>
<stop offset="1" stop-color="#DB37DE"/>
</linearGradient>
</defs>
</svg>
