<svg width="124" height="126" viewBox="0 0 124 126" fill="none" xmlns="http://www.w3.org/2000/svg">
<g filter="url(#filter0_d_77_42)">
<rect x="2" width="120" height="120" rx="5" fill="#F5F5F5"/>
</g>
<path d="M29.2796 34.352C29.2796 35.2053 29.1302 35.9093 28.8316 36.464C28.5436 37.0186 28.1542 37.4506 27.6636 37.76C27.1729 38.08 26.5756 38.3573 25.8716 38.592L25.2476 36.912C25.7169 36.7306 26.0689 36.5226 26.3036 36.288C26.5489 36.0533 26.7142 35.7813 26.7996 35.472C26.8849 35.1626 26.9276 34.7626 26.9276 34.272V24.928H29.2796V34.352Z" fill="url(#paint0_linear_77_42)"/>
<path d="M37.9908 33.648C37.9908 33.9786 38.0388 34.224 38.1348 34.384C38.2308 34.5333 38.3908 34.6453 38.6148 34.72L38.1348 36.224C37.6335 36.1813 37.2228 36.064 36.9028 35.872C36.5935 35.68 36.3535 35.3813 36.1828 34.976C35.6281 35.8293 34.7801 36.256 33.6388 36.256C32.7961 36.256 32.1241 36.016 31.6228 35.536C31.1321 35.0453 30.8868 34.4106 30.8868 33.632C30.8868 32.704 31.2228 31.9946 31.8948 31.504C32.5668 31.0133 33.5321 30.768 34.7908 30.768H35.7668V30.352C35.7668 29.8293 35.6495 29.4666 35.4148 29.264C35.1801 29.0613 34.7908 28.96 34.2468 28.96C33.6495 28.96 32.9028 29.1093 32.0068 29.408L31.4948 27.888C32.5508 27.472 33.5961 27.264 34.6308 27.264C35.7828 27.264 36.6308 27.5146 37.1748 28.016C37.7188 28.5066 37.9908 29.2426 37.9908 30.224V33.648ZM34.2628 34.624C34.9028 34.624 35.4041 34.3093 35.7668 33.68V32.064H35.0148C33.7881 32.064 33.1748 32.5226 33.1748 33.44C33.1748 33.8133 33.2655 34.1066 33.4468 34.32C33.6388 34.5226 33.9108 34.624 34.2628 34.624Z" fill="url(#paint1_linear_77_42)"/>
<path d="M47.0664 27.52L44.3464 36H41.6424L38.8744 27.52H41.3384L43.0184 34.224L44.7304 27.52H47.0664Z" fill="url(#paint2_linear_77_42)"/>
<path d="M54.3189 33.648C54.3189 33.9786 54.3669 34.224 54.4629 34.384C54.5589 34.5333 54.7189 34.6453 54.9429 34.72L54.4629 36.224C53.9616 36.1813 53.5509 36.064 53.2309 35.872C52.9216 35.68 52.6816 35.3813 52.5109 34.976C51.9563 35.8293 51.1083 36.256 49.9669 36.256C49.1243 36.256 48.4523 36.016 47.9509 35.536C47.4603 35.0453 47.2149 34.4106 47.2149 33.632C47.2149 32.704 47.5509 31.9946 48.2229 31.504C48.8949 31.0133 49.8603 30.768 51.1189 30.768H52.0949V30.352C52.0949 29.8293 51.9776 29.4666 51.7429 29.264C51.5083 29.0613 51.1189 28.96 50.5749 28.96C49.9776 28.96 49.2309 29.1093 48.3349 29.408L47.8229 27.888C48.8789 27.472 49.9243 27.264 50.9589 27.264C52.1109 27.264 52.9589 27.5146 53.5029 28.016C54.0469 28.5066 54.3189 29.2426 54.3189 30.224V33.648ZM50.5909 34.624C51.2309 34.624 51.7323 34.3093 52.0949 33.68V32.064H51.3429C50.1163 32.064 49.5029 32.5226 49.5029 33.44C49.5029 33.8133 49.5936 34.1066 49.7749 34.32C49.9669 34.5226 50.2389 34.624 50.5909 34.624Z" fill="url(#paint3_linear_77_42)"/>
<path d="M60.0129 24.672C60.8129 24.672 61.5063 24.7893 62.0929 25.024C62.6903 25.248 63.2396 25.5946 63.7409 26.064L62.6209 27.36C62.2263 27.04 61.8316 26.8053 61.4369 26.656C61.0423 26.5066 60.6209 26.432 60.1729 26.432C59.6823 26.432 59.2876 26.5386 58.9889 26.752C58.7009 26.9546 58.5569 27.248 58.5569 27.632C58.5569 27.8986 58.6156 28.1173 58.7329 28.288C58.8609 28.4586 59.0796 28.6186 59.3889 28.768C59.6983 28.9173 60.1623 29.088 60.7809 29.28C61.8796 29.632 62.7009 30.0693 63.2449 30.592C63.7889 31.104 64.0609 31.84 64.0609 32.8C64.0609 33.4826 63.8903 34.0853 63.5489 34.608C63.2076 35.12 62.7116 35.5253 62.0609 35.824C61.4103 36.112 60.6476 36.256 59.7729 36.256C58.8983 36.256 58.1196 36.1173 57.4369 35.84C56.7543 35.5626 56.1676 35.184 55.6769 34.704L56.8769 33.376C57.3036 33.7386 57.7463 34.016 58.2049 34.208C58.6636 34.3893 59.1649 34.48 59.7089 34.48C60.2849 34.48 60.7436 34.3466 61.0849 34.08C61.4369 33.8133 61.6129 33.44 61.6129 32.96C61.6129 32.6613 61.5489 32.416 61.4209 32.224C61.3036 32.0213 61.0956 31.84 60.7969 31.68C60.4983 31.52 60.0663 31.3546 59.5009 31.184C58.2956 30.8106 57.4316 30.3626 56.9089 29.84C56.3969 29.3173 56.1409 28.6346 56.1409 27.792C56.1409 27.1733 56.3063 26.6293 56.6369 26.16C56.9676 25.68 57.4263 25.312 58.0129 25.056C58.5996 24.8 59.2663 24.672 60.0129 24.672Z" fill="url(#paint4_linear_77_42)"/>
<path d="M69.1718 27.264C69.7371 27.264 70.2438 27.3493 70.6918 27.52C71.1505 27.68 71.5825 27.936 71.9878 28.288L70.9958 29.632C70.7185 29.4186 70.4465 29.264 70.1798 29.168C69.9238 29.072 69.6411 29.024 69.3318 29.024C68.1265 29.024 67.5238 29.952 67.5238 31.808C67.5238 32.7466 67.6785 33.4186 67.9878 33.824C68.2971 34.2293 68.7398 34.432 69.3158 34.432C69.6145 34.432 69.8865 34.3893 70.1318 34.304C70.3771 34.208 70.6651 34.0533 70.9958 33.84L71.9878 35.264C71.1771 35.9253 70.2491 36.256 69.2038 36.256C68.3718 36.256 67.6465 36.0746 67.0278 35.712C66.4198 35.3493 65.9505 34.8373 65.6198 34.176C65.2891 33.504 65.1238 32.72 65.1238 31.824C65.1238 30.928 65.2891 30.1386 65.6198 29.456C65.9505 28.7626 66.4198 28.224 67.0278 27.84C67.6465 27.456 68.3611 27.264 69.1718 27.264Z" fill="url(#paint5_linear_77_42)"/>
<path d="M77.6604 27.28C77.9164 27.28 78.1991 27.3226 78.5084 27.408L78.1244 29.6C77.8258 29.5253 77.5751 29.488 77.3724 29.488C76.8711 29.488 76.4818 29.664 76.2044 30.016C75.9271 30.368 75.7084 30.9013 75.5484 31.616V36H73.2764V27.52H75.2444L75.4524 29.168C75.6551 28.5706 75.9484 28.1066 76.3324 27.776C76.7271 27.4453 77.1698 27.28 77.6604 27.28Z" fill="url(#paint6_linear_77_42)"/>
<path d="M81.9078 27.52V36H79.6358V27.52H81.9078ZM80.7558 23.152C81.1611 23.152 81.4918 23.28 81.7478 23.536C82.0145 23.7813 82.1478 24.096 82.1478 24.48C82.1478 24.864 82.0145 25.184 81.7478 25.44C81.4918 25.6853 81.1611 25.808 80.7558 25.808C80.3505 25.808 80.0198 25.6853 79.7638 25.44C79.5078 25.184 79.3798 24.864 79.3798 24.48C79.3798 24.096 79.5078 23.7813 79.7638 23.536C80.0198 23.28 80.3505 23.152 80.7558 23.152Z" fill="url(#paint7_linear_77_42)"/>
<path d="M88.7274 27.264C89.7941 27.264 90.5834 27.6586 91.0954 28.448C91.6181 29.2266 91.8794 30.3253 91.8794 31.744C91.8794 32.608 91.7461 33.3813 91.4794 34.064C91.2128 34.7466 90.8234 35.2853 90.3114 35.68C89.8101 36.064 89.2128 36.256 88.5194 36.256C87.6554 36.256 86.9568 35.952 86.4234 35.344V39.264L84.1514 39.52V27.52H86.1514L86.2634 28.512C86.5834 28.096 86.9568 27.7866 87.3834 27.584C87.8208 27.3706 88.2688 27.264 88.7274 27.264ZM87.8474 34.56C88.9568 34.56 89.5114 33.6266 89.5114 31.76C89.5114 30.736 89.3888 30.0106 89.1434 29.584C88.8981 29.1573 88.5248 28.944 88.0234 28.944C87.7034 28.944 87.4048 29.0453 87.1274 29.248C86.8608 29.44 86.6261 29.7013 86.4234 30.032V33.728C86.7861 34.2826 87.2608 34.56 87.8474 34.56Z" fill="url(#paint8_linear_77_42)"/>
<path d="M98.7547 35.6C98.4454 35.8133 98.0934 35.9733 97.6987 36.08C97.3147 36.1973 96.9307 36.256 96.5467 36.256C95.672 36.2453 95.0107 35.9946 94.5627 35.504C94.1147 35.0133 93.8907 34.2933 93.8907 33.344V29.12H92.6267V27.52H93.8907V25.664L96.1627 25.392V27.52H98.1147L97.8907 29.12H96.1627V33.296C96.1627 33.7013 96.232 33.9946 96.3707 34.176C96.5093 34.3573 96.7227 34.448 97.0107 34.448C97.2987 34.448 97.6187 34.352 97.9707 34.16L98.7547 35.6Z" fill="url(#paint9_linear_77_42)"/>
<path fill-rule="evenodd" clip-rule="evenodd" d="M37 45H87V95H37V45ZM75.2223 86.9158C72.9048 86.9158 71.5944 85.7071 70.5873 84.0627L66.769 86.281C68.1483 89.0062 70.9675 91.0856 75.331 91.0856C79.7935 91.0856 83.1167 88.7683 83.1167 84.5381C83.1167 80.6144 80.8627 78.869 76.8706 77.1571L75.696 76.654C73.6802 75.781 72.8071 75.2104 72.8071 73.8008C72.8071 72.6604 73.6794 71.7873 75.0556 71.7873C76.4048 71.7873 77.2737 72.3562 78.0794 73.8008L81.7381 71.4517C80.1904 68.7294 78.0429 67.6896 75.0556 67.6896C70.8596 67.6896 68.1746 70.3723 68.1746 73.896C68.1746 77.7215 70.4269 79.531 73.8175 80.9754L74.9921 81.4794C77.135 82.4167 78.4127 82.9873 78.4127 84.5983C78.4127 85.9429 77.169 86.9158 75.2223 86.9158ZM57.0135 86.8865C55.3992 86.8865 54.7278 85.7794 53.9897 84.4698L50.1651 86.7854C51.273 89.1302 53.4516 91.0771 57.2135 91.0771C61.3769 91.0771 64.2294 88.8627 64.2294 83.9977V67.9579H59.531V83.9342C59.531 86.2825 58.5571 86.8865 57.0135 86.8865Z" fill="url(#paint10_linear_77_42)"/>
<defs>
<filter id="filter0_d_77_42" x="0" y="0" width="124" height="126" filterUnits="userSpaceOnUse" color-interpolation-filters="sRGB">
<feFlood flood-opacity="0" result="BackgroundImageFix"/>
<feColorMatrix in="SourceAlpha" type="matrix" values="0 0 0 0 0 0 0 0 0 0 0 0 0 0 0 0 0 0 127 0" result="hardAlpha"/>
<feOffset dy="4"/>
<feGaussianBlur stdDeviation="1"/>
<feComposite in2="hardAlpha" operator="out"/>
<feColorMatrix type="matrix" values="0 0 0 0 0 0 0 0 0 0 0 0 0 0 0 0 0 0 0.15 0"/>
<feBlend mode="normal" in2="BackgroundImageFix" result="effect1_dropShadow_77_42"/>
<feBlend mode="normal" in="SourceGraphic" in2="effect1_dropShadow_77_42" result="shape"/>
</filter>
<linearGradient id="paint0_linear_77_42" x1="34.6496" y1="23.152" x2="82.5516" y2="55.7793" gradientUnits="userSpaceOnUse">
<stop stop-color="#702EC4"/>
<stop offset="1" stop-color="#DB37DE"/>
</linearGradient>
<linearGradient id="paint1_linear_77_42" x1="34.6496" y1="23.152" x2="82.5516" y2="55.7793" gradientUnits="userSpaceOnUse">
<stop stop-color="#702EC4"/>
<stop offset="1" stop-color="#DB37DE"/>
</linearGradient>
<linearGradient id="paint2_linear_77_42" x1="34.6496" y1="23.152" x2="82.5516" y2="55.7793" gradientUnits="userSpaceOnUse">
<stop stop-color="#702EC4"/>
<stop offset="1" stop-color="#DB37DE"/>
</linearGradient>
<linearGradient id="paint3_linear_77_42" x1="34.6496" y1="23.152" x2="82.5516" y2="55.7793" gradientUnits="userSpaceOnUse">
<stop stop-color="#702EC4"/>
<stop offset="1" stop-color="#DB37DE"/>
</linearGradient>
<linearGradient id="paint4_linear_77_42" x1="34.6496" y1="23.152" x2="82.5516" y2="55.7793" gradientUnits="userSpaceOnUse">
<stop stop-color="#702EC4"/>
<stop offset="1" stop-color="#DB37DE"/>
</linearGradient>
<linearGradient id="paint5_linear_77_42" x1="34.6496" y1="23.152" x2="82.5516" y2="55.7793" gradientUnits="userSpaceOnUse">
<stop stop-color="#702EC4"/>
<stop offset="1" stop-color="#DB37DE"/>
</linearGradient>
<linearGradient id="paint6_linear_77_42" x1="34.6496" y1="23.152" x2="82.5516" y2="55.7793" gradientUnits="userSpaceOnUse">
<stop stop-color="#702EC4"/>
<stop offset="1" stop-color="#DB37DE"/>
</linearGradient>
<linearGradient id="paint7_linear_77_42" x1="34.6496" y1="23.152" x2="82.5516" y2="55.7793" gradientUnits="userSpaceOnUse">
<stop stop-color="#702EC4"/>
<stop offset="1" stop-color="#DB37DE"/>
</linearGradient>
<linearGradient id="paint8_linear_77_42" x1="34.6496" y1="23.152" x2="82.5516" y2="55.7793" gradientUnits="userSpaceOnUse">
<stop stop-color="#702EC4"/>
<stop offset="1" stop-color="#DB37DE"/>
</linearGradient>
<linearGradient id="paint9_linear_77_42" x1="34.6496" y1="23.152" x2="82.5516" y2="55.7793" gradientUnits="userSpaceOnUse">
<stop stop-color="#702EC4"/>
<stop offset="1" stop-color="#DB37DE"/>
</linearGradient>
<linearGradient id="paint10_linear_77_42" x1="43.3953" y1="45" x2="90.0225" y2="52.0719" gradientUnits="userSpaceOnUse">
<stop stop-color="#702EC4"/>
<stop offset="1" stop-color="#DB37DE"/>
</linearGradient>
</defs>
</svg>
