<svg width="124" height="126" viewBox="0 0 124 126" fill="none" xmlns="http://www.w3.org/2000/svg">
<g filter="url(#filter0_d_77_47)">
<rect x="2" width="120" height="120" rx="5" fill="#F5F5F5"/>
</g>
<path d="M46.8606 31.664H45.6606V36H43.3086V24.928H46.7646C48.2473 24.928 49.3619 25.2053 50.1086 25.76C50.8553 26.304 51.2286 27.1306 51.2286 28.24C51.2286 28.9653 51.0473 29.5626 50.6846 30.032C50.3326 30.5013 49.7833 30.9013 49.0366 31.232L51.9006 36H49.2286L46.8606 31.664ZM45.6606 30H46.8926C47.5219 30 47.9966 29.8613 48.3166 29.584C48.6366 29.296 48.7966 28.848 48.7966 28.24C48.7966 27.6746 48.6259 27.264 48.2846 27.008C47.9539 26.7413 47.4313 26.608 46.7166 26.608H45.6606V30Z" fill="url(#paint0_linear_77_47)"/>
<path d="M60.0223 31.568C60.0223 31.6746 60.0063 31.968 59.9743 32.448H54.6783C54.753 33.216 54.961 33.76 55.3023 34.08C55.6437 34.4 56.1077 34.56 56.6943 34.56C57.057 34.56 57.3983 34.5013 57.7183 34.384C58.0383 34.2666 58.385 34.08 58.7583 33.824L59.7023 35.104C58.753 35.872 57.681 36.256 56.4863 36.256C55.153 36.256 54.129 35.856 53.4143 35.056C52.6997 34.256 52.3423 33.1733 52.3423 31.808C52.3423 30.944 52.4917 30.1706 52.7903 29.488C53.0997 28.7946 53.5423 28.2506 54.1183 27.856C54.705 27.4613 55.3983 27.264 56.1983 27.264C57.4037 27.264 58.3423 27.6426 59.0143 28.4C59.6863 29.1573 60.0223 30.2133 60.0223 31.568ZM57.7663 30.928C57.7663 29.52 57.2597 28.816 56.2463 28.816C55.777 28.816 55.409 28.992 55.1423 29.344C54.8863 29.6853 54.7317 30.2453 54.6783 31.024H57.7663V30.928Z" fill="url(#paint1_linear_77_47)"/>
<path d="M67.9906 33.648C67.9906 33.9786 68.0386 34.224 68.1346 34.384C68.2306 34.5333 68.3906 34.6453 68.6146 34.72L68.1346 36.224C67.6333 36.1813 67.2226 36.064 66.9026 35.872C66.5933 35.68 66.3533 35.3813 66.1826 34.976C65.6279 35.8293 64.7799 36.256 63.6386 36.256C62.7959 36.256 62.1239 36.016 61.6226 35.536C61.1319 35.0453 60.8866 34.4106 60.8866 33.632C60.8866 32.704 61.2226 31.9946 61.8946 31.504C62.5666 31.0133 63.5319 30.768 64.7906 30.768H65.7666V30.352C65.7666 29.8293 65.6493 29.4666 65.4146 29.264C65.1799 29.0613 64.7906 28.96 64.2466 28.96C63.6493 28.96 62.9026 29.1093 62.0066 29.408L61.4946 27.888C62.5506 27.472 63.5959 27.264 64.6306 27.264C65.7826 27.264 66.6306 27.5146 67.1746 28.016C67.7186 28.5066 67.9906 29.2426 67.9906 30.224V33.648ZM64.2626 34.624C64.9026 34.624 65.4039 34.3093 65.7666 33.68V32.064H65.0146C63.7879 32.064 63.1746 32.5226 63.1746 33.44C63.1746 33.8133 63.2653 34.1066 63.4466 34.32C63.6386 34.5226 63.9106 34.624 64.2626 34.624Z" fill="url(#paint2_linear_77_47)"/>
<path d="M73.7966 27.264C74.3619 27.264 74.8686 27.3493 75.3166 27.52C75.7753 27.68 76.2073 27.936 76.6126 28.288L75.6206 29.632C75.3433 29.4186 75.0713 29.264 74.8046 29.168C74.5486 29.072 74.2659 29.024 73.9566 29.024C72.7513 29.024 72.1486 29.952 72.1486 31.808C72.1486 32.7466 72.3033 33.4186 72.6126 33.824C72.9219 34.2293 73.3646 34.432 73.9406 34.432C74.2393 34.432 74.5113 34.3893 74.7566 34.304C75.0019 34.208 75.2899 34.0533 75.6206 33.84L76.6126 35.264C75.8019 35.9253 74.8739 36.256 73.8286 36.256C72.9966 36.256 72.2713 36.0746 71.6526 35.712C71.0446 35.3493 70.5753 34.8373 70.2446 34.176C69.9139 33.504 69.7486 32.72 69.7486 31.824C69.7486 30.928 69.9139 30.1386 70.2446 29.456C70.5753 28.7626 71.0446 28.224 71.6526 27.84C72.2713 27.456 72.9859 27.264 73.7966 27.264Z" fill="url(#paint3_linear_77_47)"/>
<path d="M82.9732 35.6C82.6639 35.8133 82.3119 35.9733 81.9172 36.08C81.5332 36.1973 81.1492 36.256 80.7652 36.256C79.8906 36.2453 79.2292 35.9946 78.7812 35.504C78.3332 35.0133 78.1092 34.2933 78.1092 33.344V29.12H76.8452V27.52H78.1092V25.664L80.3812 25.392V27.52H82.3332L82.1092 29.12H80.3812V33.296C80.3812 33.7013 80.4506 33.9946 80.5892 34.176C80.7279 34.3573 80.9412 34.448 81.2292 34.448C81.5172 34.448 81.8372 34.352 82.1892 34.16L82.9732 35.6Z" fill="url(#paint4_linear_77_47)"/>
<path d="M59.3641 79.7047C60.2234 79.7437 61.1016 79.7719 61.9906 79.7719C62.8891 79.7719 63.7766 79.7531 64.6469 79.7047C63.7766 80.8297 62.9172 81.825 62.0078 82.7734L62.0203 82.7609C61.1156 81.8234 60.2469 80.8265 59.4281 79.789L59.3641 79.7047ZM50.4609 78.4547C52.1531 78.8843 54.2172 79.25 56.3234 79.475L56.5281 79.4922C57.8172 81.2625 59.1203 82.8203 60.5187 84.2859L60.5016 84.2672C58.4531 86.5531 55.6891 88.1594 52.5625 88.7359L52.4766 88.7484C52.4703 88.7484 52.4641 88.7484 52.4578 88.7484C52.0703 88.7484 51.7047 88.6531 51.3844 88.4844L51.3969 88.4906C50.0969 87.7484 49.5328 84.9094 49.9719 81.2609C50.0766 80.3625 50.2484 79.4172 50.4594 78.4531L50.4609 78.4547ZM73.5594 78.4344C73.7438 79.175 73.9172 80.1187 74.0406 81.0781L74.0547 81.2125C74.5031 84.8594 73.95 87.6953 72.6609 88.4531C72.3734 88.6125 72.0297 88.7062 71.6641 88.7062C71.6281 88.7062 71.5922 88.7047 71.5563 88.7031H71.5609C68.3531 88.1172 65.5906 86.5219 63.5469 84.264L63.5359 84.2515C64.9094 82.8094 66.2031 81.2547 67.3891 79.6187L67.4797 79.4875C69.7859 79.2469 71.8531 78.875 73.8672 78.3672L73.5594 78.4328V78.4344ZM52.2875 72.6031C52.6781 73.3687 53.0875 74.1312 53.5375 74.8969C53.9865 75.6583 54.4453 76.4021 54.9141 77.1281C53.5578 76.9297 52.2484 76.6797 50.9969 76.375C51.3484 75.1453 51.7891 73.8718 52.2859 72.6L52.2875 72.6031ZM71.7063 72.564C72.2234 73.8469 72.6625 75.1265 73.0266 76.3672C71.7766 76.6734 70.4563 76.9328 69.0906 77.1281C69.5594 76.3953 70.0281 75.6406 70.4672 74.8672C70.9063 74.1062 71.3172 73.3281 71.7094 72.5625L71.7063 72.564ZM48.9047 64.2062C49.5859 66.5156 50.3172 68.4468 51.1687 70.3094L51.0516 70.025C50.3234 71.5953 49.6031 73.5156 49.0125 75.4922L48.9312 75.8125C47.8281 75.4734 46.9406 75.1406 46.0766 74.7672L46.2562 74.8359C42.875 73.3969 40.6875 71.5047 40.6875 70.0047C40.6875 68.5047 42.875 66.6031 46.2562 65.1703C47.0766 64.8187 47.9766 64.5015 48.9047 64.2062ZM75.0594 64.1984C76.0047 64.4906 76.9031 64.8172 77.7438 65.1703C81.125 66.6156 83.3125 68.5047 83.3125 70.0047C83.3031 71.5047 81.1156 73.4015 77.7344 74.8375C76.9141 75.189 76.0156 75.5047 75.0891 75.8C74.4016 73.4828 73.6703 71.5531 72.8219 69.6875L72.9406 69.9812C73.6656 68.4125 74.3875 66.4922 74.9766 64.5156L75.0594 64.1937V64.1984ZM69.0781 62.8812C70.4359 63.0828 71.7438 63.3297 72.9953 63.6375C72.6438 64.8719 72.2047 66.1406 71.7063 67.4125C71.3156 66.6515 70.9063 65.8843 70.4563 65.1203C70.0172 64.3547 69.5484 63.6094 69.0797 62.8828L69.0781 62.8812ZM54.9031 62.8812C54.4344 63.6172 53.9656 64.3703 53.5281 65.1469C53.0891 65.9078 52.6781 66.6734 52.2875 67.439C51.7703 66.1578 51.3313 64.8812 50.9672 63.6375C52.2172 63.3453 53.5344 63.0844 54.9016 62.8844L54.9031 62.8812ZM62 62.3844C63.4453 62.3844 64.8844 62.45 66.3 62.5656C67.0927 63.7021 67.8625 64.9125 68.6094 66.1968C69.3354 67.4468 69.9979 68.7135 70.5969 69.9969C69.9953 71.2765 69.3359 72.5547 68.6188 73.8047C67.8766 75.0937 67.1094 76.3203 66.3141 77.4562C64.8922 77.5797 63.4516 77.6469 61.9984 77.6469C60.5531 77.6469 59.1141 77.5781 57.6984 77.4656C56.9062 76.3297 56.1328 75.114 55.3891 73.8344C54.663 72.5844 54.0005 71.3177 53.4016 70.0343C53.9937 68.7515 54.6625 67.4703 55.3797 66.2187C56.1219 64.9297 56.8891 63.7078 57.6844 62.5719C59.1062 62.4469 60.5469 62.3812 62 62.3812V62.3844ZM61.9703 57.2578C62.8766 58.1953 63.7453 59.1906 64.5625 60.2281L64.625 60.3109C63.7656 60.2719 62.8875 60.2453 61.9984 60.2453C61.1 60.2453 60.2125 60.264 59.3422 60.3109C60.2109 59.1859 61.0703 58.1906 61.9812 57.2422L61.9688 57.2547L61.9703 57.2578ZM52.4375 51.3015C55.6453 51.889 58.4062 53.4844 60.4516 55.7406L60.4625 55.7531C59.0891 57.1969 57.7953 58.7515 56.6094 60.3906L56.5187 60.5219C54.2141 60.7609 52.1469 61.1297 50.1344 61.6375L50.4406 61.5719C50.2219 60.6156 50.0594 59.689 49.9453 58.8C49.4969 55.1531 50.05 52.3172 51.3391 51.5625C51.6609 51.4109 52.0375 51.3172 52.4344 51.3047H52.4391L52.4375 51.3015ZM71.5156 51.2625V51.275C71.5359 51.275 71.5594 51.2734 71.5844 51.2734C71.9578 51.2734 72.3094 51.3656 72.6188 51.5281L72.6063 51.5219C73.9062 52.2672 74.4703 55.1047 74.0313 58.7547C73.9266 59.6531 73.7547 60.6 73.5438 61.5656C71.8484 61.1312 69.7844 60.764 67.6781 60.5406L67.4781 60.5234C66.1875 58.7515 64.8844 57.1937 63.4859 55.7265L63.5047 55.7453C65.5531 53.464 68.3125 51.8578 71.4328 51.2781L71.5203 51.264L71.5156 51.2625ZM71.525 49.1344C67.7094 49.714 64.4062 51.5672 61.9937 54.2406L61.9812 54.2547C59.5516 51.5828 56.2484 49.7422 52.5266 49.1844L52.4391 49.1734C52.4187 49.1734 52.3938 49.1734 52.3688 49.1734C51.6016 49.1734 50.8812 49.375 50.2578 49.7281L50.2797 49.7172C47.5953 51.2656 46.9937 56.0906 48.3797 62.1453C42.4359 63.9812 38.5703 66.9156 38.5703 70.0078C38.5703 73.1125 42.4562 76.0547 48.4172 77.8765C47.0422 83.9547 47.6562 88.7875 50.3469 90.3344C50.9375 90.6734 51.6469 90.8719 52.4016 90.8719C52.4359 90.8719 52.4703 90.8719 52.5031 90.8703H52.4984C56.3141 90.2906 59.6172 88.4359 62.0297 85.7609L62.0422 85.7468C64.4719 88.4203 67.775 90.2609 71.4969 90.8187L71.5844 90.8297C71.6078 90.8297 71.6375 90.8297 71.6656 90.8297C72.4281 90.8297 73.1453 90.6297 73.7656 90.2812L73.7438 90.2922C76.4266 88.7453 77.0297 83.9203 75.6438 77.864C81.5656 76.0437 85.4313 73.1031 85.4313 70.0062C85.4313 66.9015 81.5453 63.9594 75.5844 62.1328C76.9594 56.0609 76.3453 51.2234 73.6547 49.675C73.0578 49.3328 72.3422 49.1312 71.5797 49.1312C71.5594 49.1312 71.5391 49.1312 71.5187 49.1312H71.5219L71.525 49.1344ZM66.3547 70.0078C66.3547 72.4187 64.4 74.3734 61.9891 74.3734C59.5781 74.3734 57.6234 72.4187 57.6234 70.0078C57.6234 67.5968 59.5781 65.6422 61.9891 65.6422C63.1953 65.6422 64.2859 66.1312 65.0766 66.9203C65.8672 67.7109 66.3547 68.8015 66.3547 70.0078Z" fill="url(#paint5_linear_77_47)"/>
<defs>
<filter id="filter0_d_77_47" x="0" y="0" width="124" height="126" filterUnits="userSpaceOnUse" color-interpolation-filters="sRGB">
<feFlood flood-opacity="0" result="BackgroundImageFix"/>
<feColorMatrix in="SourceAlpha" type="matrix" values="0 0 0 0 0 0 0 0 0 0 0 0 0 0 0 0 0 0 127 0" result="hardAlpha"/>
<feOffset dy="4"/>
<feGaussianBlur stdDeviation="1"/>
<feComposite in2="hardAlpha" operator="out"/>
<feColorMatrix type="matrix" values="0 0 0 0 0 0 0 0 0 0 0 0 0 0 0 0 0 0 0.15 0"/>
<feBlend mode="normal" in2="BackgroundImageFix" result="effect1_dropShadow_77_47"/>
<feBlend mode="normal" in="SourceGraphic" in2="effect1_dropShadow_77_47" result="shape"/>
</filter>
<linearGradient id="paint0_linear_77_47" x1="48.382" y1="24.928" x2="77.8976" y2="40.6026" gradientUnits="userSpaceOnUse">
<stop stop-color="#702EC4"/>
<stop offset="1" stop-color="#DB37DE"/>
</linearGradient>
<linearGradient id="paint1_linear_77_47" x1="48.382" y1="24.928" x2="77.8976" y2="40.6026" gradientUnits="userSpaceOnUse">
<stop stop-color="#702EC4"/>
<stop offset="1" stop-color="#DB37DE"/>
</linearGradient>
<linearGradient id="paint2_linear_77_47" x1="48.382" y1="24.928" x2="77.8976" y2="40.6026" gradientUnits="userSpaceOnUse">
<stop stop-color="#702EC4"/>
<stop offset="1" stop-color="#DB37DE"/>
</linearGradient>
<linearGradient id="paint3_linear_77_47" x1="48.382" y1="24.928" x2="77.8976" y2="40.6026" gradientUnits="userSpaceOnUse">
<stop stop-color="#702EC4"/>
<stop offset="1" stop-color="#DB37DE"/>
</linearGradient>
<linearGradient id="paint4_linear_77_47" x1="48.382" y1="24.928" x2="77.8976" y2="40.6026" gradientUnits="userSpaceOnUse">
<stop stop-color="#702EC4"/>
<stop offset="1" stop-color="#DB37DE"/>
</linearGradient>
<linearGradient id="paint5_linear_77_47" x1="44.5642" y1="49.1312" x2="88.0096" y2="56.5288" gradientUnits="userSpaceOnUse">
<stop stop-color="#702EC4"/>
<stop offset="1" stop-color="#DB37DE"/>
</linearGradient>
</defs>
</svg>
