<svg width="65" height="65" viewBox="0 0 65 65" fill="none" xmlns="http://www.w3.org/2000/svg">
<circle cx="32.5" cy="32.5" r="32.5" fill="#A948D7"/>
<path d="M17.1 24.11C17.3016 23.2265 17.7973 22.4376 18.5058 21.8726C19.2144 21.3076 20.0938 20.9999 21 21H45C45.9062 20.9999 46.7856 21.3076 47.4942 21.8726C48.2027 22.4376 48.6984 23.2265 48.9 24.11L33 33.828L17.1 24.11ZM17 26.394V40.602L28.606 33.486L17 26.394ZM30.522 34.66L17.382 42.714C17.7067 43.3986 18.2191 43.9769 18.8596 44.3816C19.5001 44.7863 20.2423 45.0007 21 45H45C45.7575 45.0002 46.4995 44.7852 47.1397 44.3802C47.7798 43.9751 48.2918 43.3966 48.616 42.712L35.476 34.658L33 36.172L30.522 34.66ZM37.394 33.488L49 40.602V26.394L37.394 33.488Z" fill="white"/>
</svg>
