<svg width="65" height="65" viewBox="0 0 65 65" fill="none" xmlns="http://www.w3.org/2000/svg">
<circle cx="32.5" cy="32.5" r="32.5" fill="#A948D7"/>
<g clip-path="url(#clip0_114_16)">
<path d="M33 17C24.16 17 17 24.16 17 33C17 40.08 21.58 46.06 27.94 48.18C28.74 48.32 29.04 47.84 29.04 47.42C29.04 47.04 29.02 45.78 29.02 44.44C25 45.18 23.96 43.46 23.64 42.56C23.46 42.1 22.68 40.68 22 40.3C21.44 40 20.64 39.26 21.98 39.24C23.24 39.22 24.14 40.4 24.44 40.88C25.88 43.3 28.18 42.62 29.1 42.2C29.24 41.16 29.66 40.46 30.12 40.06C26.56 39.66 22.84 38.28 22.84 32.16C22.84 30.42 23.46 28.98 24.48 27.86C24.32 27.46 23.76 25.82 24.64 23.62C24.64 23.62 25.98 23.2 29.04 25.26C30.32 24.9 31.68 24.72 33.04 24.72C34.4 24.72 35.76 24.9 37.04 25.26C40.1 23.18 41.44 23.62 41.44 23.62C42.32 25.82 41.76 27.46 41.6 27.86C42.62 28.98 43.24 30.4 43.24 32.16C43.24 38.3 39.5 39.66 35.94 40.06C36.52 40.56 37.02 41.52 37.02 43.02C37.02 45.16 37 46.88 37 47.42C37 47.84 37.3 48.34 38.1 48.18C41.2768 47.1085 44.0373 45.0673 45.9928 42.3441C47.9483 39.6208 49 36.3526 49 33C49 24.16 41.84 17 33 17Z" fill="white"/>
</g>
<defs>
<clipPath id="clip0_114_16">
<rect width="32" height="32" fill="white" transform="translate(17 17)"/>
</clipPath>
</defs>
</svg>
