<svg width="65" height="65" viewBox="0 0 65 65" fill="none" xmlns="http://www.w3.org/2000/svg">
<circle cx="32.5" cy="32.5" r="32.5" fill="#A948D7"/>
<g clip-path="url(#clip0_110_13)">
<path d="M17 19.292C17 18.026 18.052 17 19.35 17H46.65C47.948 17 49 18.026 49 19.292V46.708C49 47.974 47.948 49 46.65 49H19.35C18.052 49 17 47.974 17 46.708V19.292ZM26.886 43.788V29.338H22.084V43.788H26.886ZM24.486 27.364C26.16 27.364 27.202 26.256 27.202 24.868C27.172 23.45 26.162 22.372 24.518 22.372C22.874 22.372 21.8 23.452 21.8 24.868C21.8 26.256 22.842 27.364 24.454 27.364H24.486ZM34.302 43.788V35.718C34.302 35.286 34.334 34.854 34.462 34.546C34.808 33.684 35.598 32.79 36.926 32.79C38.664 32.79 39.358 34.114 39.358 36.058V43.788H44.16V35.5C44.16 31.06 41.792 28.996 38.632 28.996C36.084 28.996 34.942 30.396 34.302 31.382V31.432H34.27L34.302 31.382V29.338H29.502C29.562 30.694 29.502 43.788 29.502 43.788H34.302Z" fill="white"/>
</g>
<defs>
<clipPath id="clip0_110_13">
<rect width="32" height="32" fill="white" transform="translate(17 17)"/>
</clipPath>
</defs>
</svg>
