<svg width="170" height="29" viewBox="0 0 170 29" fill="none" xmlns="http://www.w3.org/2000/svg">
<path d="M26.108 28H20.312L19.88 18.244C19.76 15.916 19.7 13.84 19.7 12.016C19.7 10.624 19.736 9.30403 19.808 8.05603L15.956 25.372H10.376L6.27199 8.05603C6.41599 10.144 6.48799 12.112 6.48799 13.96C6.48799 15.352 6.45199 16.804 6.37999 18.316L5.94799 28H0.187988L2.05999 3.05203H9.51199L13.256 19.972L16.748 3.05203H24.236L26.108 28Z" fill="url(#paint0_linear_77_5)"/>
<path d="M44.7248 22.456C44.7248 23.176 44.8208 23.704 45.0128 24.04C45.2288 24.376 45.5648 24.628 46.0208 24.796L44.8328 28.504C43.6568 28.408 42.6968 28.156 41.9528 27.748C41.2088 27.316 40.6328 26.644 40.2248 25.732C38.9768 27.652 37.0568 28.612 34.4648 28.612C32.5688 28.612 31.0568 28.06 29.9288 26.956C28.8008 25.852 28.2368 24.412 28.2368 22.636C28.2368 20.548 29.0048 18.952 30.5408 17.848C32.0768 16.744 34.2968 16.192 37.2008 16.192H39.1448V15.364C39.1448 14.236 38.9048 13.468 38.4248 13.06C37.9448 12.628 37.1048 12.412 35.9048 12.412C35.2808 12.412 34.5248 12.508 33.6368 12.7C32.7488 12.868 31.8368 13.108 30.9008 13.42L29.6048 9.67603C30.8048 9.22003 32.0288 8.87203 33.2768 8.63203C34.5488 8.39203 35.7248 8.27203 36.8048 8.27203C39.5408 8.27203 41.5448 8.83603 42.8168 9.96403C44.0888 11.092 44.7248 12.784 44.7248 15.04V22.456ZM36.1208 24.544C37.4168 24.544 38.4248 23.932 39.1448 22.708V19.324H37.7408C36.4448 19.324 35.4728 19.552 34.8248 20.008C34.2008 20.464 33.8888 21.172 33.8888 22.132C33.8888 22.9 34.0808 23.5 34.4648 23.932C34.8728 24.34 35.4248 24.544 36.1208 24.544Z" fill="url(#paint1_linear_77_5)"/>
<path d="M61.2434 27.1C60.5474 27.58 59.7314 27.952 58.7954 28.216C57.8834 28.48 56.9714 28.612 56.0594 28.612C51.8834 28.588 49.7954 26.284 49.7954 21.7V12.844H47.0954V8.88403H49.7954V4.74403L55.4834 4.09603V8.88403H59.8754L59.2634 12.844H55.4834V21.628C55.4834 22.516 55.6274 23.152 55.9154 23.536C56.2034 23.92 56.6594 24.112 57.2834 24.112C57.9314 24.112 58.6154 23.908 59.3354 23.5L61.2434 27.1Z" fill="url(#paint2_linear_77_5)"/>
<path d="M75.1301 27.1C74.4341 27.58 73.6181 27.952 72.6821 28.216C71.7701 28.48 70.8581 28.612 69.9461 28.612C65.7701 28.588 63.6821 26.284 63.6821 21.7V12.844H60.9821V8.88403H63.6821V4.74403L69.3701 4.09603V8.88403H73.7621L73.1501 12.844H69.3701V21.628C69.3701 22.516 69.5141 23.152 69.8021 23.536C70.0901 23.92 70.5461 24.112 71.1701 24.112C71.8181 24.112 72.5021 23.908 73.2221 23.5L75.1301 27.1Z" fill="url(#paint3_linear_77_5)"/>
<path d="M98.8198 28L97.5238 22.636H90.2518L88.9918 28H82.8718L90.3958 3.05203H97.5598L105.084 28H98.8198ZM91.2598 18.352H96.5158L93.8878 7.33603L91.2598 18.352Z" fill="url(#paint4_linear_77_5)"/>
<path d="M111.882 28.612C110.226 28.612 108.93 28.144 107.994 27.208C107.082 26.248 106.626 24.892 106.626 23.14V1.28803L112.314 0.676025V22.924C112.314 23.716 112.638 24.112 113.286 24.112C113.622 24.112 113.934 24.052 114.222 23.932L115.338 27.964C114.306 28.396 113.154 28.612 111.882 28.612Z" fill="url(#paint5_linear_77_5)"/>
<path d="M133.594 8.88403L127.582 28H120.85L114.694 8.88403H120.886L124.27 23.68L127.798 8.88403H133.594Z" fill="url(#paint6_linear_77_5)"/>
<path d="M151.986 18.064C151.986 18.856 151.95 19.54 151.878 20.116H140.034C140.226 21.724 140.682 22.852 141.402 23.5C142.122 24.148 143.118 24.472 144.39 24.472C145.158 24.472 145.902 24.34 146.622 24.076C147.342 23.788 148.122 23.356 148.962 22.78L151.302 25.948C149.07 27.724 146.586 28.612 143.85 28.612C140.754 28.612 138.378 27.7 136.722 25.876C135.066 24.052 134.238 21.604 134.238 18.532C134.238 16.588 134.586 14.848 135.282 13.312C135.978 11.752 136.998 10.528 138.342 9.64003C139.686 8.72803 141.294 8.27203 143.166 8.27203C145.926 8.27203 148.086 9.13603 149.646 10.864C151.206 12.592 151.986 14.992 151.986 18.064ZM146.406 16.444C146.358 13.516 145.326 12.052 143.31 12.052C142.326 12.052 141.558 12.412 141.006 13.132C140.478 13.852 140.154 15.04 140.034 16.696H146.406V16.444Z" fill="url(#paint7_linear_77_5)"/>
<path d="M161.913 8.27203C163.281 8.27203 164.565 8.47603 165.765 8.88403C166.965 9.29203 168.021 9.86803 168.933 10.612L166.845 13.816C165.285 12.832 163.713 12.34 162.129 12.34C161.385 12.34 160.809 12.472 160.401 12.736C160.017 12.976 159.825 13.324 159.825 13.78C159.825 14.14 159.909 14.44 160.077 14.68C160.269 14.896 160.641 15.124 161.193 15.364C161.745 15.604 162.597 15.892 163.749 16.228C165.741 16.804 167.217 17.56 168.177 18.496C169.161 19.408 169.653 20.68 169.653 22.312C169.653 23.608 169.281 24.736 168.537 25.696C167.793 26.632 166.773 27.352 165.477 27.856C164.181 28.36 162.741 28.612 161.157 28.612C159.549 28.612 158.049 28.36 156.657 27.856C155.289 27.352 154.125 26.656 153.165 25.768L155.937 22.672C157.545 23.92 159.237 24.544 161.013 24.544C161.877 24.544 162.549 24.388 163.029 24.076C163.533 23.764 163.785 23.32 163.785 22.744C163.785 22.288 163.689 21.928 163.497 21.664C163.305 21.4 162.933 21.16 162.381 20.944C161.829 20.704 160.953 20.416 159.753 20.08C157.857 19.528 156.441 18.76 155.505 17.776C154.569 16.792 154.101 15.568 154.101 14.104C154.101 13 154.413 12.016 155.037 11.152C155.685 10.264 156.597 9.56803 157.773 9.06403C158.973 8.53603 160.353 8.27203 161.913 8.27203Z" fill="url(#paint8_linear_77_5)"/>
<defs>
<linearGradient id="paint0_linear_77_5" x1="21.8638" y1="0.676028" x2="109.418" y2="81.2306" gradientUnits="userSpaceOnUse">
<stop stop-color="#702EC4"/>
<stop offset="1" stop-color="#DB37DE"/>
</linearGradient>
<linearGradient id="paint1_linear_77_5" x1="21.8638" y1="0.676028" x2="109.418" y2="81.2306" gradientUnits="userSpaceOnUse">
<stop stop-color="#702EC4"/>
<stop offset="1" stop-color="#DB37DE"/>
</linearGradient>
<linearGradient id="paint2_linear_77_5" x1="21.8638" y1="0.676028" x2="109.418" y2="81.2306" gradientUnits="userSpaceOnUse">
<stop stop-color="#702EC4"/>
<stop offset="1" stop-color="#DB37DE"/>
</linearGradient>
<linearGradient id="paint3_linear_77_5" x1="21.8638" y1="0.676028" x2="109.418" y2="81.2306" gradientUnits="userSpaceOnUse">
<stop stop-color="#702EC4"/>
<stop offset="1" stop-color="#DB37DE"/>
</linearGradient>
<linearGradient id="paint4_linear_77_5" x1="21.8638" y1="0.676028" x2="109.418" y2="81.2306" gradientUnits="userSpaceOnUse">
<stop stop-color="#702EC4"/>
<stop offset="1" stop-color="#DB37DE"/>
</linearGradient>
<linearGradient id="paint5_linear_77_5" x1="21.8638" y1="0.676028" x2="109.418" y2="81.2306" gradientUnits="userSpaceOnUse">
<stop stop-color="#702EC4"/>
<stop offset="1" stop-color="#DB37DE"/>
</linearGradient>
<linearGradient id="paint6_linear_77_5" x1="21.8638" y1="0.676028" x2="109.418" y2="81.2306" gradientUnits="userSpaceOnUse">
<stop stop-color="#702EC4"/>
<stop offset="1" stop-color="#DB37DE"/>
</linearGradient>
<linearGradient id="paint7_linear_77_5" x1="21.8638" y1="0.676028" x2="109.418" y2="81.2306" gradientUnits="userSpaceOnUse">
<stop stop-color="#702EC4"/>
<stop offset="1" stop-color="#DB37DE"/>
</linearGradient>
<linearGradient id="paint8_linear_77_5" x1="21.8638" y1="0.676028" x2="109.418" y2="81.2306" gradientUnits="userSpaceOnUse">
<stop stop-color="#702EC4"/>
<stop offset="1" stop-color="#DB37DE"/>
</linearGradient>
</defs>
</svg>
