<svg width="65" height="65" viewBox="0 0 65 65" fill="none" xmlns="http://www.w3.org/2000/svg">
<circle cx="32.5" cy="32.5" r="32.5" fill="#A948D7"/>
<g clip-path="url(#clip0_110_12)">
<path fill-rule="evenodd" clip-rule="evenodd" d="M20.77 18.022C21.1199 17.6726 21.5401 17.4016 22.0028 17.2268C22.4654 17.0521 22.9599 16.9777 23.4534 17.0085C23.947 17.0393 24.4284 17.1747 24.8657 17.4056C25.303 17.6366 25.6862 17.9578 25.99 18.348L29.58 22.96C30.238 23.806 30.47 24.908 30.21 25.948L29.116 30.328C29.0598 30.5549 29.0631 30.7925 29.1254 31.0177C29.1878 31.243 29.3071 31.4484 29.472 31.614L34.386 36.528C34.5519 36.6932 34.7576 36.8128 34.9832 36.8752C35.2089 36.9375 35.4468 36.9406 35.674 36.8841L40.052 35.7901C40.5652 35.6625 41.1008 35.6529 41.6183 35.762C42.1358 35.8711 42.6219 36.0961 43.04 36.42L47.652 40.008C49.31 41.298 49.462 43.748 47.978 45.23L45.91 47.298C44.43 48.778 42.218 49.428 40.156 48.702C34.8773 46.8472 30.085 43.8256 26.136 39.862C22.1727 35.9135 19.1511 31.122 17.296 25.844C16.572 23.784 17.222 21.57 18.702 20.09L20.77 18.022Z" fill="white"/>
</g>
<defs>
<clipPath id="clip0_110_12">
<rect width="32" height="32" fill="white" transform="translate(17 17)"/>
</clipPath>
</defs>
</svg>
